<?xml version="1.0" standalone="no"?>
<!DOCTYPE svg PUBLIC "-//W3C//DTD SVG 20010904//EN"
 "http://www.w3.org/TR/2001/REC-SVG-20010904/DTD/svg10.dtd">
<svg version="1.0" xmlns="http://www.w3.org/2000/svg"
 width="616.000000pt" height="609.000000pt" viewBox="0 0 616.000000 609.000000"
 preserveAspectRatio="xMidYMid meet" >

<g transform="translate(0.000000,609.000000) scale(0.100000,-0.100000)"
fill="#d4af37" stroke="none">
<path d="M70 5905 l0 -145 61 0 62 0 -5 -2054 -5 -2054 101 -128 101 -129 -4
-394 c-2 -263 0 -391 7 -387 6 3 24 39 40 79 54 128 173 392 181 400 6 6 81
-82 149 -174 11 -16 -33 -69 -363 -441 -206 -232 -375 -428 -375 -435 0 -30
37 -6 162 105 492 439 715 635 725 639 7 3 46 -22 87 -55 41 -34 84 -67 95
-74 12 -7 21 -16 21 -19 0 -7 -116 -62 -340 -160 l-145 -64 389 -3 388 -2 135
-105 135 -105 168 0 c92 0 316 3 499 7 l333 6 -3 189 -4 189 100 -3 100 -3
105 -227 c58 -125 108 -227 111 -228 3 0 54 106 113 235 l108 235 92 0 91 0
-4 -199 -3 -199 183 -6 c101 -3 333 -7 516 -10 l332 -4 128 102 128 101 403 5
402 5 -250 109 c-137 60 -250 112 -250 115 1 3 45 41 99 83 l99 77 422 -375
c232 -206 428 -374 436 -374 38 0 42 -5 -667 794 -44 49 -78 95 -75 101 2 7
37 53 77 104 l73 92 22 -43 c12 -24 61 -133 110 -243 l89 -200 5 390 5 390 99
128 100 127 -3 2045 -3 2045 61 0 61 0 0 145 0 145 -145 0 -145 0 0 -55 0 -55
-2715 0 -2715 0 0 55 0 55 -145 0 -145 0 0 -145z m250 75 l0 -40 -65 0 -65 0
0 -70 0 -70 -40 0 c-25 0 -40 5 -41 13 -1 10 0 173 1 200 0 4 47 7 105 7 l105
0 0 -40z m5730 -70 l0 -110 -45 0 -45 0 0 54 c0 82 -3 86 -71 86 l-59 0 0 40
0 40 110 0 110 0 0 -110z m-3387 -131 l-123 -121 -124 119 c-79 75 -119 120
-111 123 8 3 119 4 247 2 l233 -3 -122 -120z m2097 101 c0 -9 3 -38 6 -64 l7
-46 -504 0 -503 0 64 65 64 65 421 2 c231 2 426 1 433 -1 6 -2 12 -11 12 -21z
m1144 24 c12 -4 16 -20 16 -55 l0 -49 -45 0 -45 0 0 49 c0 46 2 50 28 54 15 2
28 5 29 6 1 0 8 -2 17 -5z m-5584 -54 l0 -50 -45 0 -45 0 0 50 0 50 45 0 45 0
0 -50z m1030 -9 c0 -75 -33 -266 -60 -351 -36 -111 -116 -261 -187 -350 l-68
-85 -3 248 -2 247 -85 0 -85 0 0 125 0 125 -250 0 -250 0 0 50 0 50 495 0 495
0 0 -59z m951 -6 l67 -65 -495 0 -495 0 6 31 c3 17 6 47 6 65 l0 34 422 0 421
0 68 -65z m1128 -70 l136 -135 -85 -85 -85 -85 -156 163 -156 164 -174 -158
-173 -159 -82 78 c-45 42 -82 80 -83 83 0 3 59 65 132 137 l132 132 229 0 230
0 135 -135z m296 15 c-66 -66 -124 -120 -130 -120 -6 0 -64 54 -130 120 l-120
120 250 0 250 0 -120 -120z m2065 70 l0 -50 -250 0 -250 0 0 -125 0 -125 -85
0 -85 0 0 -247 -1 -248 -35 40 c-57 65 -134 183 -170 260 -62 134 -114 358
-114 493 l0 52 495 0 495 0 0 -50z m-5470 -340 l0 -250 85 0 85 0 0 -125 0
-125 240 0 c132 0 240 -3 240 -7 0 -12 -64 -62 -154 -123 -137 -91 -329 -173
-509 -214 -38 -9 -70 -16 -73 -16 -2 0 -4 250 -4 555 l0 555 45 0 45 0 0 -250z
m510 145 l0 -105 -170 0 -169 0 -3 -127 -3 -128 -62 -3 -63 -3 0 236 0 235
235 0 235 0 0 -105z m4960 -130 l0 -236 -62 3 -63 3 -3 128 -3 127 -169 0
-170 0 0 105 0 105 235 0 235 0 0 -235z m130 -320 c0 -305 -3 -555 -6 -555 -3
0 -51 11 -106 26 -106 26 -245 78 -339 125 -92 46 -289 185 -289 204 0 3 108
5 240 5 l240 0 0 125 0 125 85 0 85 0 0 250 0 250 45 0 45 0 0 -555z m-3458
478 l48 -47 -22 -23 -21 -23 -557 0 -556 0 12 68 c7 37 13 68 13 70 1 1 234 2
518 2 l517 0 48 -47z m758 -90 l133 -138 -53 -3 -53 -3 -84 83 -83 83 -83 -83
-82 -82 -69 0 c-37 0 -66 4 -64 8 5 13 289 272 298 272 4 0 68 -62 140 -137z
m1562 87 c4 -25 10 -55 13 -67 l5 -23 -573 0 c-545 0 -575 1 -591 18 -15 18
-13 22 36 70 l53 52 525 -2 524 -3 8 -45z m-2137 -169 l59 -61 -157 0 c-86 0
-157 3 -157 8 0 4 32 39 72 78 l73 72 25 -18 c14 -10 52 -46 85 -79z m954 -59
c-78 -1 -144 0 -148 3 -3 4 27 38 67 77 l73 71 75 -74 75 -74 -142 -3z m-459
53 l54 -55 -114 0 -114 0 54 55 c30 30 57 55 60 55 3 0 30 -25 60 -55z m-765
-6 l-50 -51 -497 4 c-273 2 -499 6 -503 10 -3 3 -1 24 6 47 l12 41 541 0 540
0 -49 -51z m2443 12 c7 -21 12 -43 12 -50 0 -8 -139 -11 -518 -11 l-518 0 -49
50 -49 50 555 0 556 0 11 -39z m-3990 -108 l-3 -108 -150 0 -150 0 -3 108 -3
107 156 0 156 0 -3 -107z m162 -128 l0 -235 -232 2 -233 3 0 105 0 105 168 3
167 2 0 125 0 125 65 0 65 0 0 -235z m4300 110 l0 -125 170 0 171 0 -3 -107
-3 -108 -232 -3 -233 -2 0 235 0 235 65 0 65 0 0 -125z m338 18 l-3 -108 -150
0 -150 0 -3 108 -3 107 156 0 156 0 -3 -107z m-4065 -113 c59 -71 107 -135
107 -142 -1 -7 -16 -30 -34 -51 l-34 -38 -127 168 c-71 92 -132 174 -138 181
-7 9 5 12 54 12 l64 -1 108 -129z m161 60 c55 -67 57 -72 43 -93 -29 -41 -65
-82 -69 -77 -2 3 -45 55 -96 116 -51 62 -92 115 -92 118 0 3 35 6 78 6 l78 0
58 -70z m166 58 c-1 -7 -19 -33 -41 -58 l-41 -44 -43 49 c-25 28 -44 53 -45
58 0 4 38 7 85 7 62 0 85 -3 85 -12z m210 5 c0 -5 -32 -46 -71 -92 -39 -47
-81 -98 -93 -114 l-23 -29 -41 50 -41 49 60 71 61 72 74 0 c41 0 74 -3 74 -7z
m190 -1 c0 -4 -63 -85 -139 -180 l-139 -172 -36 42 c-20 23 -36 44 -36 47 0 8
153 197 193 239 28 29 36 32 94 32 35 0 63 -3 63 -8z m519 0 l54 -7 -187 -182
-187 -183 -219 0 c-121 0 -220 3 -220 6 0 6 172 221 253 317 l49 57 201 -1
c111 -1 226 -4 256 -7z m981 -14 c33 -35 274 -328 283 -344 7 -12 -24 -14
-200 -14 l-208 0 -184 184 -185 185 60 4 c32 2 139 4 236 5 172 2 178 1 198
-20z m814 16 c15 -6 -32 -70 -144 -196 l-35 -40 -38 51 -38 50 52 65 c28 36
59 67 68 69 25 7 118 8 135 1z m206 -4 c0 -6 -63 -87 -141 -181 l-141 -170
-34 38 c-18 21 -33 43 -34 50 0 6 48 70 107 142 l108 131 67 0 c39 0 68 -4 68
-10z m-2000 -227 c-124 -125 -236 -238 -250 -250 l-25 -23 -704 0 c-558 0
-702 -3 -698 -12 2 -7 26 -64 53 -125 l49 -113 112 0 113 0 0 64 c0 46 -4 65
-14 69 -21 8 -26 -2 -26 -50 l0 -43 -75 0 c-41 0 -78 1 -82 2 -9 2 -73 143
-73 158 0 6 253 10 681 10 l681 0 58 58 c31 31 122 125 202 207 79 83 172 177
207 210 l62 59 267 -267 267 -267 682 -2 681 -3 -35 -82 c-42 -97 -36 -94
-195 -83 -4 0 -8 21 -10 48 -2 34 -7 47 -18 47 -12 0 -15 -14 -15 -65 l0 -65
111 -3 111 -3 52 117 c28 64 51 120 51 125 0 5 -306 9 -703 9 l-702 0 -250
250 -250 250 59 0 59 0 207 -205 206 -205 732 0 c403 0 732 -2 732 -4 0 -2
-45 -188 -101 -412 -191 -780 -328 -1335 -403 -1644 -63 -260 -211 -862 -246
-1003 -27 -107 -30 -134 -30 -281 l0 -163 -90 -6 c-215 -16 -426 -84 -576
-188 -133 -91 -258 -248 -315 -396 -44 -113 -39 -107 -104 -113 l-58 -5 -55
-123 c-31 -67 -59 -119 -62 -115 -4 5 -31 61 -60 126 l-53 117 -51 0 c-28 0
-56 4 -61 8 -6 4 -23 39 -38 77 -137 354 -478 583 -924 621 l-83 7 0 158 0
158 -79 323 c-44 178 -102 415 -130 528 -65 267 -145 595 -291 1185 -177 722
-280 1143 -280 1150 0 3 334 5 741 5 l742 0 181 178 c244 240 220 222 285 222
l55 0 -224 -227z m1274 100 c58 -71 106 -131 106 -134 0 -4 -17 -25 -37 -48
l-38 -42 -142 176 -143 175 74 0 74 0 106 -127z m153 71 c26 -30 51 -61 55
-67 4 -7 -11 -33 -35 -60 l-42 -48 -80 97 c-122 148 -119 134 -26 134 l80 0
48 -56z m163 50 c0 -3 -17 -25 -37 -49 -41 -49 -42 -49 -94 17 l-31 38 81 0
c45 0 81 -3 81 -6z m-2995 -146 c60 -79 119 -156 132 -171 13 -16 23 -33 23
-38 0 -5 -102 -9 -246 -9 l-245 0 20 28 c12 15 42 55 69 90 26 34 68 103 93
152 24 50 45 90 45 90 1 0 50 -64 109 -142z m3491 60 c43 -86 103 -177 153
-233 l36 -40 -133 -3 c-72 -1 -190 -1 -261 0 l-128 3 141 172 c77 95 144 172
148 173 4 0 24 -33 44 -72z m-496 -169 c0 -5 -47 -66 -74 -97 -2 -1 -22 20
-45 48 l-42 50 42 50 41 49 39 -47 c22 -26 39 -50 39 -53z m-2552 52 c18 -22
32 -45 32 -51 0 -7 -17 -32 -37 -56 l-36 -45 -38 43 c-21 24 -38 48 -39 54 0
12 68 94 79 94 4 0 22 -18 39 -39z m122 -153 c0 -5 -28 -8 -61 -8 -67 0 -67
-1 -15 58 l20 22 27 -32 c16 -18 28 -36 29 -40z m2280 32 l32 -40 -67 0 -66 0
33 40 c18 22 34 40 35 40 1 0 16 -18 33 -40z m186 -38 c-32 -2 -61 -1 -63 2
-3 3 7 21 23 40 l29 34 35 -36 35 -37 -59 -3z m-2701 38 c16 -16 26 -32 23
-35 -3 -4 -32 -5 -63 -3 l-58 3 27 33 c15 17 31 32 35 32 4 0 20 -13 36 -30z
m-645 -475 c178 -723 233 -946 266 -1085 19 -80 69 -282 110 -450 41 -168 107
-433 145 -590 39 -157 90 -366 115 -465 24 -99 44 -181 44 -182 0 -2 -24 -3
-54 -3 -43 0 -56 4 -60 18 -9 29 -51 194 -141 547 -47 187 -107 419 -131 515
-25 96 -70 272 -100 390 -30 118 -84 328 -119 465 -35 138 -96 376 -135 530
-118 463 -140 549 -146 566 -3 12 14 31 53 63 50 40 59 43 65 28 4 -9 44 -165
88 -347z m4128 317 l53 -47 -45 -170 c-24 -93 -89 -348 -145 -565 -110 -433
-176 -693 -252 -990 -63 -245 -134 -522 -244 -952 -47 -186 -90 -349 -95 -363
-8 -22 -15 -25 -60 -25 -27 0 -50 4 -50 10 0 5 41 175 91 377 49 202 113 460
140 573 28 113 84 342 125 510 41 168 95 388 120 490 265 1084 294 1200 303
1200 3 0 30 -22 59 -48z m-4359 -104 c5 -18 49 -186 96 -373 48 -187 108 -425
135 -530 27 -104 83 -325 125 -490 42 -165 110 -428 150 -585 40 -157 114
-446 164 -642 50 -197 91 -360 91 -363 0 -3 -31 -5 -70 -5 l-70 0 0 44 c0 110
-42 274 -100 388 -23 46 -90 298 -281 1067 -277 1115 -359 1447 -359 1455 0 7
91 66 102 66 3 0 11 -15 17 -32z m4510 -3 c23 -14 41 -29 41 -34 0 -5 -106
-436 -235 -958 -130 -521 -267 -1076 -306 -1231 -50 -203 -78 -299 -99 -336
-53 -93 -100 -263 -100 -361 0 -80 -5 -85 -76 -85 -50 0 -64 3 -64 15 0 8 13
65 29 127 16 62 63 246 105 408 100 393 168 659 221 865 49 192 199 780 315
1235 106 415 99 393 115 386 7 -2 32 -16 54 -31z m-4562 -457 c56 -227 188
-758 293 -1179 104 -422 190 -770 190 -774 0 -4 -21 14 -47 40 -27 26 -67 61
-91 78 -47 34 -42 22 -97 252 -19 83 -67 283 -105 445 -39 162 -79 333 -90
380 -11 47 -47 198 -80 335 -33 138 -69 288 -80 335 -11 47 -39 167 -63 268
l-44 182 51 24 c28 13 53 25 56 25 3 1 51 -185 107 -411z m4745 345 c-8 -39
-145 -619 -262 -1108 -10 -44 -62 -262 -115 -485 -136 -575 -133 -562 -142
-570 -4 -3 -41 -32 -81 -64 -40 -32 -77 -66 -82 -75 -5 -9 -10 -11 -10 -4 0 6
115 474 255 1040 141 565 272 1093 292 1173 19 80 37 148 40 152 2 4 27 -4 56
-17 38 -18 51 -30 49 -42z m-4983 -40 c6 -21 29 -114 51 -208 22 -93 54 -226
70 -295 17 -69 64 -267 105 -440 86 -365 192 -810 235 -990 16 -69 30 -130 30
-137 0 -7 -23 -1 -59 18 -33 16 -65 29 -71 29 -15 0 -26 31 -54 165 -14 66
-66 307 -116 535 -50 228 -113 519 -141 645 -27 127 -54 248 -59 270 -25 103
-91 417 -88 420 6 5 63 23 75 24 7 1 17 -16 22 -36z m5072 25 c22 -6 39 -15
39 -19 0 -4 -20 -101 -45 -216 -111 -508 -254 -1161 -351 -1603 -25 -112 -47
-206 -48 -208 -2 -2 -36 -18 -75 -37 -54 -26 -71 -31 -71 -20 0 9 14 73 31
143 16 70 48 204 70 297 22 94 57 242 78 330 70 291 109 456 211 885 110 464
109 460 117 460 3 0 23 -5 44 -12z m-5184 -129 c11 -52 51 -229 86 -394 109
-497 195 -894 263 -1199 35 -160 61 -292 59 -295 -7 -6 -115 21 -121 31 -3 5
-91 432 -195 951 -104 518 -191 952 -194 964 -4 18 0 24 27 32 18 5 37 8 43 7
5 -2 20 -45 32 -97z m5312 90 c26 -9 31 -16 27 -33 -8 -32 -386 -1918 -386
-1926 0 -3 -29 -13 -65 -22 -36 -8 -65 -11 -65 -6 0 4 34 162 76 351 108 489
208 946 249 1137 19 91 42 194 50 230 8 36 24 108 35 160 29 137 23 128 79
109z m-5431 -126 c12 -60 98 -490 192 -956 93 -466 170 -851 170 -856 0 -10
-98 3 -109 15 -4 5 -27 122 -50 259 -57 333 -125 733 -150 875 -24 138 -109
635 -121 705 -8 52 -2 65 31 65 13 0 21 -23 37 -107z m5539 99 c10 -6 -16
-179 -116 -758 -71 -412 -144 -837 -162 -944 -17 -107 -37 -200 -43 -206 -17
-17 -106 -27 -106 -11 0 6 86 443 192 969 199 988 196 975 235 950z m-5608
-262 c17 -96 44 -256 61 -355 17 -99 44 -259 61 -355 16 -96 41 -238 54 -315
13 -77 40 -234 60 -350 20 -115 39 -222 42 -237 l6 -28 -61 0 c-34 0 -63 3
-66 8 -2 4 -47 267 -100 584 l-96 576 1 339 c1 186 3 331 5 323 2 -8 17 -94
33 -190z m5553 -1070 l-97 -575 -62 -3 c-35 -2 -63 -1 -63 1 0 3 9 58 20 123
34 198 70 403 90 519 11 61 42 243 69 405 48 283 128 749 133 773 2 7 4 -141
5 -328 l2 -340 -97 -575z m-5508 -120 c40 -239 71 -438 69 -442 -2 -5 -38 -8
-79 -8 l-74 0 1 463 c1 254 4 453 6 442 2 -11 37 -216 77 -455z m5606 -5 l0
-455 -80 0 c-78 0 -80 1 -75 23 5 24 145 871 145 881 0 3 2 6 5 6 3 0 5 -205
5 -455z m-5532 -1087 c1 -379 -1 -608 -7 -608 -6 0 -47 46 -91 103 l-82 102 6
254 c3 140 6 368 6 508 l0 254 83 -3 82 -3 3 -607z m232 597 c177 -22 279 -53
425 -128 61 -31 102 -62 171 -131 101 -102 157 -196 193 -324 25 -92 43 -246
39 -337 l-3 -70 -71 -3 -71 -3 -6 113 c-10 166 -46 280 -129 404 -127 190
-345 298 -648 322 l-95 7 -3 69 c-2 38 -1 75 2 83 7 17 53 17 196 -2z m5098
-4 c9 -5 12 -29 10 -82 l-3 -74 -35 -2 c-395 -27 -632 -157 -763 -418 -47 -95
-69 -183 -74 -307 l-6 -118 -75 0 -75 0 6 153 c4 105 12 176 27 232 93 359
398 579 855 615 50 4 97 8 105 8 8 1 21 -2 28 -7z m205 -233 c4 -128 7 -350 7
-492 l0 -259 -71 -93 c-39 -52 -77 -99 -85 -105 -12 -10 -14 77 -14 585 l0
596 78 0 79 0 6 -232z m-5245 21 c346 -70 543 -287 582 -642 16 -143 21 -137
-115 -137 -126 0 -125 -1 -125 80 0 20 -7 63 -15 95 -61 239 -236 379 -503
401 l-82 7 0 107 c0 59 3 110 7 114 11 10 142 -3 251 -25z m5052 -98 l0 -108
-74 -7 c-315 -28 -502 -207 -532 -506 l-7 -70 -120 0 -120 0 6 93 c9 129 31
217 83 325 109 225 338 359 654 381 52 4 98 5 103 3 4 -2 7 -52 7 -111z
m-5129 -156 c192 -38 332 -181 374 -380 19 -89 19 -135 2 -135 -8 0 -49 9 -92
20 -43 11 -91 20 -106 20 -32 0 -29 10 -113 -324 -51 -204 -61 -236 -69 -225
-2 2 -42 54 -90 115 l-87 111 0 405 c0 223 3 408 7 411 8 8 80 1 174 -18z
m5129 -387 l-1 -393 -94 -118 c-51 -65 -95 -114 -97 -110 -3 4 -43 135 -89
291 -62 208 -88 282 -99 282 -8 0 -53 -16 -100 -35 -47 -19 -86 -35 -87 -35
-8 0 -1 73 12 128 32 136 124 261 234 317 72 36 183 64 259 64 l62 1 0 -392z
m-3960 -163 l0 -145 -55 0 -55 0 0 85 0 84 -87 3 -88 3 -3 44 c-5 73 -9 71
148 71 l140 0 0 -145z m2890 70 l0 -55 -85 0 -85 0 0 -90 0 -91 -57 3 c-39 2
-58 7 -57 16 1 6 2 71 3 142 l1 130 140 0 140 0 0 -55z m710 -97 c18 -57 45
-148 62 -203 42 -138 67 -229 64 -232 -2 -2 -77 16 -167 40 l-164 44 -3 190
-2 190 82 36 c46 20 86 37 90 37 4 0 21 -46 38 -102z m-4464 40 l74 -21 0
-181 0 -182 -165 -56 c-133 -46 -165 -54 -165 -41 0 17 118 482 126 495 9 14
52 9 130 -14z m542 -110 l3 -88 84 0 85 0 0 -187 0 -188 -32 55 c-107 188
-269 357 -437 455 -33 20 -61 38 -61 41 0 2 80 3 178 2 l177 -3 3 -87z m172
22 l0 -70 -70 0 -70 0 0 70 0 70 70 0 70 0 0 -70z m-471 -14 c74 -46 193 -145
186 -156 -3 -4 -69 -30 -148 -56 -78 -26 -148 -49 -154 -52 -10 -3 -13 33 -13
162 l0 166 36 -15 c20 -8 62 -30 93 -49z m3511 -6 l0 -70 -70 0 -70 0 0 70 0
70 70 0 70 0 0 -70z m355 62 c-6 -5 -47 -35 -93 -67 -140 -99 -304 -282 -371
-412 -12 -24 -24 -43 -26 -43 -3 0 -5 79 -5 175 l0 175 90 0 90 0 0 90 0 90
162 0 c89 0 158 -4 153 -8z m115 -162 c0 -93 -3 -170 -7 -170 -7 0 -203 52
-291 77 l-54 15 34 35 c62 65 275 213 305 213 10 0 13 -38 13 -170z m-3245 -1
c310 -26 568 -141 736 -328 30 -33 69 -84 87 -114 44 -72 103 -210 94 -217 -4
-4 -50 -4 -102 -2 l-96 4 -37 71 c-144 280 -415 427 -788 427 l-119 0 0 85 0
85 53 0 c28 0 106 -5 172 -11z m2605 -88 l0 -78 -152 -6 c-118 -4 -175 -11
-249 -30 -229 -60 -392 -184 -499 -379 l-45 -83 -94 -3 -93 -3 7 32 c12 51 62
157 110 228 117 177 335 318 570 370 124 27 131 28 298 30 l147 1 0 -79z
m-3006 -126 c24 -33 61 -90 81 -127 l37 -68 -160 0 -161 0 30 113 c16 61 37
137 45 167 l16 55 34 -40 c19 -22 55 -67 78 -100z m-191 -12 c-18 -71 -36
-140 -39 -155 -6 -27 -6 -27 -111 -30 -58 -2 -109 0 -114 3 -6 3 -8 52 -7 108
l3 103 140 48 c77 27 145 49 151 49 7 1 -1 -47 -23 -126z m3527 -48 c27 -81
50 -149 50 -151 0 -2 -74 -4 -165 -4 -91 0 -165 2 -165 5 0 12 55 114 96 177
60 94 115 153 125 135 5 -7 31 -80 59 -162z m910 -105 c0 -242 -6 -308 -23
-252 -3 9 -37 87 -76 172 -38 85 -66 159 -62 165 54 73 146 185 153 185 4 0 8
-121 8 -270z m-5230 169 c39 -50 74 -97 76 -104 5 -11 -116 -303 -146 -354 -6
-10 -10 92 -10 267 0 155 2 282 4 282 2 0 36 -41 76 -91z m4442 51 c62 -16
130 -35 151 -40 l37 -11 0 -109 0 -110 -109 0 c-94 0 -110 2 -116 18 -8 20
-95 275 -95 279 0 7 25 2 132 -27z m-2937 -55 c169 -35 317 -114 415 -222 52
-57 143 -200 137 -217 -2 -5 -67 -9 -148 -8 -138 1 -145 2 -158 24 -29 45
-117 120 -176 148 -87 43 -164 60 -297 67 l-118 6 0 115 0 115 133 -6 c72 -3
168 -13 212 -22z m2454 9 l31 -6 0 -107 0 -107 -114 -12 c-190 -20 -319 -71
-428 -171 l-53 -49 -150 -3 c-171 -4 -164 -10 -110 86 106 189 303 316 550
355 118 18 225 23 274 14z m-3477 -126 l3 -113 123 -3 c67 -1 122 -6 122 -10
0 -27 -87 -332 -95 -332 -5 1 -57 39 -115 85 -58 47 -108 84 -112 82 -3 -1
-138 -119 -299 -262 -161 -143 -305 -269 -319 -280 -27 -21 3 14 308 359 112
126 206 235 209 242 2 6 -32 59 -76 115 -44 57 -82 108 -83 113 -3 8 289 113
319 115 9 1 13 -31 15 -111z m4263 91 c17 -4 81 -22 144 -38 62 -16 114 -31
116 -33 2 -2 -37 -54 -87 -117 l-90 -113 25 -27 c19 -21 416 -471 516 -585 40
-46 -39 22 -334 283 -142 127 -262 231 -265 231 -3 0 -55 -38 -115 -85 -60
-46 -112 -81 -116 -77 -7 7 -109 312 -109 325 0 4 52 7 115 7 l115 0 0 125 0
125 28 -6 c15 -3 41 -10 57 -15z m-3601 -261 c37 -84 61 -156 54 -164 -5 -5
-350 -90 -490 -120 -26 -6 -26 -5 -18 27 8 35 67 261 76 292 5 15 22 17 180
17 l175 0 23 -52z m285 26 c113 -25 219 -86 270 -155 l22 -29 -239 0 -238 0
-36 97 c-20 54 -34 101 -31 105 6 12 173 -1 252 -18z m2547 -16 c-3 -13 -13
-55 -22 -95 l-16 -72 -240 -3 c-132 -2 -242 0 -244 4 -8 12 99 90 165 120 82
38 207 66 295 67 66 1 68 0 62 -21z m467 -144 c32 -92 56 -168 54 -170 -2 -2
-115 26 -253 61 -137 36 -253 65 -258 65 -12 0 -1 84 19 154 l16 56 183 0 182
0 57 -166z m-2348 -116 c8 -28 15 -59 15 -67 0 -14 -67 -16 -672 -13 -370 1
-680 5 -688 8 -15 6 55 25 305 83 77 18 145 34 150 36 6 2 204 4 442 4 l432 1
16 -52z m234 15 c5 -21 11 -51 13 -68 l3 -30 -94 0 -95 0 -18 60 c-10 33 -18
63 -18 68 0 4 45 7 100 7 l99 0 10 -37z m173 -93 c31 -69 57 -131 57 -137 1
-7 -11 -38 -26 -70 l-27 -57 -59 125 c-46 98 -87 223 -87 265 0 3 19 4 42 2
l43 -3 57 -125z m305 116 c-3 -8 -9 -32 -12 -53 -7 -40 -11 -49 -87 -213 l-50
-105 -23 45 c-13 25 -24 54 -25 65 0 11 25 77 57 148 l56 127 45 0 c34 0 43
-3 39 -14z m223 8 c0 -3 -7 -30 -16 -60 l-15 -54 -90 0 -90 0 7 38 c15 83 13
82 114 82 49 0 90 -3 90 -6z m1029 -28 c69 -19 168 -44 219 -57 50 -12 92 -25
92 -28 0 -7 -1322 -3 -1328 3 -2 3 3 30 12 60 l17 56 430 0 431 0 127 -34z
m-3306 -199 c48 -38 87 -71 87 -73 0 -2 -120 -4 -267 -4 -146 0 -264 3 -261 6
16 15 334 151 343 146 5 -3 49 -36 98 -75z m1369 49 c4 -6 8 -37 8 -68 l0 -58
-611 0 -611 0 -89 71 c-49 39 -89 73 -89 75 0 2 312 1 693 -2 485 -5 694 -10
699 -18z m2348 19 c0 -2 -46 -41 -101 -85 l-102 -80 -630 0 -629 0 6 58 c4 31
9 69 12 85 l6 27 719 0 c395 0 719 -2 719 -5z m243 -82 l178 -78 -140 -3 c-78
-1 -204 -1 -281 0 l-140 3 97 77 c54 43 100 77 103 78 2 0 85 -35 183 -77z
m-2100 -243 c-15 -33 -29 -57 -33 -55 -4 3 -17 29 -29 58 l-22 53 27 59 27 60
27 -58 28 -58 -25 -59z m-483 60 l0 -89 -476 -1 -476 0 -105 82 -106 83 364 5
c200 3 462 6 582 8 l217 2 0 -90z m2075 51 c-6 -4 -55 -43 -109 -85 l-100 -77
-480 6 c-265 4 -487 8 -493 10 -9 3 -13 28 -13 80 l0 75 602 0 c341 0 598 -4
593 -9z" fill="#d4af37"/>
<path d="M5953 1447 l-93 -115 0 -415 c0 -347 2 -416 14 -420 8 -3 17 -3 20 0
3 4 6 192 6 418 l0 412 51 64 c28 35 54 65 58 67 5 1 6 -65 3 -148 -4 -130 -3
-150 11 -150 12 0 16 23 22 133 4 72 5 163 3 200 l-3 68 -92 -114z" />
<path d="M118 1325 c2 -170 5 -205 17 -205 12 0 15 28 17 153 l3 152 52 -70
52 -70 1 -417 c0 -365 2 -418 15 -418 13 0 15 54 15 426 l0 425 -82 115 c-45
63 -84 114 -87 114 -3 0 -5 -92 -3 -205z"/>
<path d="M490 290 c0 -20 7 -20 415 -20 l416 0 64 -52 c36 -28 65 -54 65 -57
0 -4 -65 -5 -145 -3 -122 4 -145 2 -145 -10 0 -17 112 -28 292 -28 l110 0
-118 95 -117 95 -419 0 c-411 0 -418 0 -418 -20z"/>
<path d="M4742 210 c-67 -49 -119 -90 -115 -92 9 -3 29 -3 266 0 156 2 157 2
157 25 0 22 -2 22 -97 19 -54 -2 -122 -2 -152 0 l-55 3 45 29 c24 16 45 28 46
25 1 -2 9 5 17 16 14 19 29 20 438 25 392 5 423 6 426 23 3 16 -22 17 -425 16
l-428 -1 -123 -88z"/>
</g>
</svg>
