<?xml version="1.0" standalone="no"?>
<!DOCTYPE svg PUBLIC "-//W3C//DTD SVG 20010904//EN"
 "http://www.w3.org/TR/2001/REC-SVG-20010904/DTD/svg10.dtd">
<svg version="1.0" xmlns="http://www.w3.org/2000/svg"
 width="373.000000pt" height="100.000000pt" viewBox="0 0 373.000000 100.000000"
 preserveAspectRatio="xMidYMid meet">

<g transform="translate(0.000000,100.000000) scale(0.100000,-0.100000)" fill="#d4af37" stroke="#d4af37" stroke-width="40">
  <path d="M90 950 l0 -40 -40 0 -40 0 0 -410 0 -410 40 0 40 0 0 -40 0 -40
  1780 0 1780 0 0 40 0 40 40 0 40 0 0 410 0 410 -40 0 -40 0 0 40 0 40 -1780 0
  -1780 0 0 -40z m3550 -5 l0 -35 -1770 0 -1770 0 0 35 0 35 1770 0 1770 0 0
  -35z m-3550 -445 l0 -400 -35 0 -35 0 0 400 0 400 35 0 35 0 0 -400z m3550 0
  l0 -400 -1770 0 -1770 0 0 400 0 400 1770 0 1770 0 0 -400z m80 0 l0 -400 -35
  0 -35 0 0 400 0 400 35 0 35 0 0 -400z m-80 -445 l0 -35 -1770 0 -1770 0 0 35
  0 35 1770 0 1770 0 0 -35z"/>
</g>

</svg>
