<?xml version="1.0" standalone="no"?>
<!DOCTYPE svg PUBLIC "-//W3C//DTD SVG 20010904//EN"
 "http://www.w3.org/TR/2001/REC-SVG-20010904/DTD/svg10.dtd">
<svg version="1.0" xmlns="http://www.w3.org/2000/svg"
 viewBox="545 20 815 950"
 preserveAspectRatio="xMidYMid meet">

<g transform="translate(0.000000,1080.000000) scale(0.100000,-0.100000)"
fill="#d4af37" stroke="none">
<path d="M9517 10549 c-10 -6 -91 -64 -180 -130 -89 -66 -202 -147 -251 -180
-49 -33 -112 -79 -140 -103 -28 -23 -179 -136 -336 -251 -157 -114 -289 -212
-295 -217 -6 -5 -10 -78 -10 -176 0 -103 -4 -174 -11 -185 -10 -18 -39 -19
-679 -17 l-668 1 7 -23 c10 -32 111 -1217 104 -1223 -3 -3 -352 -5 -775 -5
-646 0 -772 -2 -782 -14 -9 -11 -6 -52 14 -177 54 -339 76 -477 91 -579 8 -58
19 -127 25 -155 5 -27 36 -221 69 -430 77 -494 115 -734 139 -870 11 -60 34
-204 51 -320 18 -115 37 -223 43 -240 5 -17 13 -172 18 -345 7 -316 19 -441
60 -660 115 -601 387 -1166 790 -1636 92 -106 362 -384 374 -384 4 0 49 -34
100 -75 509 -409 1111 -663 1805 -762 180 -25 730 -25 910 0 597 85 1100 274
1570 590 791 533 1332 1358 1504 2297 37 202 46 306 56 620 5 157 13 310 19
340 5 30 16 102 25 160 45 301 69 457 91 575 14 72 58 348 100 615 41 267 82
526 90 575 8 50 33 205 55 345 22 140 50 311 61 379 18 105 19 126 7 137 -12
12 -144 14 -786 14 l-772 0 0 28 c0 15 20 267 45 561 25 294 45 562 45 597 l0
64 -659 0 -658 0 -7 73 c-4 39 -6 119 -6 177 1 72 -3 110 -12 121 -7 9 -92 74
-188 144 -96 71 -233 171 -304 223 -71 52 -148 106 -172 119 -25 14 -48 32
-53 42 -5 9 -35 34 -67 56 -33 22 -86 60 -119 85 -107 80 -264 193 -292 211
-21 13 -33 15 -46 8z m196 -196 c202 -148 723 -530 880 -646 l107 -80 0 -663
c0 -436 -3 -664 -10 -664 -7 0 -10 223 -10 648 0 356 -4 652 -8 659 -14 23
-337 252 -344 245 -4 -4 -8 -330 -8 -724 0 -410 -4 -720 -9 -723 -5 -3 -16 2
-25 11 -14 14 -16 91 -12 750 l3 734 -51 38 c-140 106 -276 202 -288 204 -11
3 -14 -141 -18 -837 -5 -788 -6 -840 -22 -843 -17 -3 -18 45 -20 864 l-3 868
-169 123 -169 124 -26 -17 c-14 -9 -48 -33 -76 -54 -27 -20 -94 -69 -147 -108
l-98 -72 -2 -862 c-3 -759 -5 -863 -18 -863 -13 0 -16 102 -20 840 -4 619 -8
839 -16 838 -7 -1 -86 -57 -178 -123 l-166 -121 0 -742 c0 -739 -2 -770 -32
-751 -5 3 -8 328 -8 722 0 496 -3 718 -10 720 -6 2 -23 -4 -38 -14 -22 -15
-287 -209 -302 -221 -2 -2 -3 -286 -2 -631 1 -345 -1 -639 -4 -654 -19 -95
-24 29 -24 636 l0 664 268 196 c502 369 654 481 771 568 64 48 119 88 123 88
3 0 85 -57 181 -127z m-9 -77 l136 -98 0 -852 0 -851 -305 0 -305 0 0 850 0
851 96 69 c52 39 121 89 152 112 47 35 60 40 74 30 9 -7 77 -56 152 -111z
m-587 -1812 c-2 -2 -270 -44 -283 -44 -2 0 -4 330 -4 733 l0 733 143 103 142
102 3 -812 c1 -447 1 -813 -1 -815z m991 1517 l132 -96 0 -732 c0 -403 -1
-733 -2 -733 -2 0 -64 9 -138 20 -74 11 -138 20 -142 20 -5 0 -8 367 -8 816 0
649 3 814 13 808 6 -4 72 -50 145 -103z m-1388 -884 l0 -702 -122 -32 c-68
-18 -133 -35 -145 -39 l-23 -6 0 634 0 635 23 20 c22 21 258 193 264 193 2 0
3 -316 3 -703z m1769 606 c64 -47 124 -92 134 -101 16 -14 17 -58 17 -650 0
-503 -3 -633 -12 -630 -7 3 -73 20 -145 39 l-133 34 0 703 c0 527 3 701 11
696 7 -4 64 -45 128 -91z m-2189 -508 l0 -25 -609 0 c-418 0 -610 -3 -613 -11
-2 -5 25 -348 59 -762 51 -624 59 -754 48 -766 -17 -18 -21 4 -35 184 -6 77
-13 156 -15 175 -3 19 -25 283 -50 585 -24 303 -47 571 -49 598 l-5 47 634 0
635 0 0 -25z m3736 -27 c-5 -43 -72 -826 -116 -1363 -14 -173 -18 -191 -36
-174 -11 12 -12 33 -4 119 5 58 14 164 20 235 5 72 14 184 20 250 47 562 70
855 70 892 l0 43 -610 0 -610 0 0 25 0 25 636 0 636 0 -6 -52z m-3736 -53 l0
-25 -576 0 -575 0 6 -67 c3 -38 17 -207 30 -378 14 -170 34 -416 45 -545 35
-426 34 -404 16 -419 -13 -11 -16 -11 -16 -1 0 8 -11 146 -25 309 -37 438 -95
1141 -95 1146 0 3 268 5 595 5 l595 0 0 -25z m3660 22 c0 -16 -96 -1167 -116
-1389 -6 -65 -18 -86 -30 -53 -4 8 4 131 15 272 37 442 91 1104 91 1121 0 1
-259 2 -575 2 l-575 0 0 25 0 25 595 0 c327 0 595 -1 595 -3z m-3660 -97 c0
-20 -7 -20 -530 -20 -446 0 -531 -2 -536 -14 -3 -8 4 -135 16 -283 11 -147 30
-383 41 -523 11 -140 23 -298 28 -350 7 -89 3 -120 -19 -120 -4 0 -12 69 -18
153 -6 83 -30 373 -52 642 -22 270 -40 500 -40 513 l0 22 555 0 c548 0 555 0
555 -20z m3580 -2 c0 -22 -8 -125 -65 -818 -14 -168 -28 -347 -32 -397 -3 -51
-9 -93 -13 -93 -23 0 -26 35 -14 180 53 661 76 956 77 1025 l2 80 -532 3
c-525 2 -533 2 -533 22 0 20 7 20 555 20 l555 0 0 -22z m-3580 -78 c0 -20 -7
-20 -495 -20 l-495 0 0 -38 c0 -20 14 -210 30 -422 54 -689 54 -680 42 -692
-7 -7 -14 -9 -18 -6 -3 4 -25 253 -49 555 -24 301 -46 569 -48 596 l-4 47 518
0 c512 0 519 0 519 -20z m3506 -2 c-3 -13 -7 -59 -10 -103 -9 -120 -54 -695
-71 -894 -8 -96 -17 -176 -20 -179 -3 -3 -11 0 -17 6 -9 9 -4 115 21 434 17
233 36 470 41 527 6 58 10 124 10 148 l0 43 -495 0 c-488 0 -495 0 -495 20 0
20 7 20 520 20 l520 0 -4 -22z m-3506 -68 c0 -20 -7 -20 -454 -20 -316 0 -455
-3 -458 -11 -4 -11 1 -71 47 -682 14 -181 23 -333 20 -338 -4 -5 -12 -9 -19
-9 -9 0 -16 47 -24 173 -12 173 -31 406 -57 721 -8 93 -12 173 -9 178 3 4 219
8 480 8 467 0 474 0 474 -20z m3425 -32 c-8 -81 -32 -381 -57 -720 -16 -223
-26 -308 -35 -308 -6 0 -14 4 -17 9 -3 5 1 102 10 217 48 628 59 794 56 803
-3 8 -149 11 -458 11 -447 0 -454 0 -454 20 0 20 7 20 480 20 l480 0 -5 -52z
m-3425 -44 c0 -12 -60 -14 -415 -14 -353 0 -416 -2 -421 -14 -3 -8 -1 -72 5
-143 38 -471 54 -754 43 -765 -6 -6 -13 -10 -16 -7 -3 4 -13 117 -51 639 -8
107 -17 223 -21 257 l-6 63 434 2 c238 2 436 2 441 0 4 -2 7 -10 7 -18z m3346
-41 c-4 -32 -15 -182 -26 -333 -30 -415 -42 -565 -46 -569 -3 -3 -10 1 -16 7
-9 9 -7 69 6 249 43 588 47 656 34 665 -7 4 -191 8 -408 8 -217 0 -401 -1
-407 0 -7 0 -13 7 -13 15 0 13 56 15 441 15 l441 0 -6 -57z m-3346 -33 c0 -20
-7 -20 -375 -20 -312 0 -377 -2 -381 -14 -3 -8 7 -183 23 -390 27 -355 28
-378 11 -392 -15 -15 -17 -13 -22 18 -6 36 -56 746 -56 791 l0 27 400 0 c393
0 400 0 400 -20z m3270 -7 c0 -45 -50 -755 -56 -791 -4 -28 -8 -31 -20 -22
-19 17 -18 50 12 438 14 184 23 340 20 348 -4 11 -68 14 -378 16 -346 3 -373
4 -376 21 -3 16 21 17 397 17 l401 0 0 -27z m-3270 -265 l0 -193 -153 -60
c-83 -33 -226 -97 -317 -142 -90 -45 -166 -80 -169 -77 -4 4 -50 570 -51 632
l0 32 345 0 345 0 0 -192z m3166 150 c-3 -24 -15 -171 -26 -328 -12 -157 -23
-290 -25 -296 -2 -7 -68 21 -167 70 -90 45 -236 111 -325 147 l-163 64 0 192
0 193 356 0 356 0 -6 -42z m-1578 -223 c339 -36 644 -109 953 -229 654 -253
1230 -715 1623 -1300 317 -472 500 -973 572 -1566 21 -171 24 -555 5 -720 -67
-599 -262 -1139 -579 -1604 -184 -270 -465 -576 -707 -768 -1074 -855 -2548
-1017 -3780 -417 -350 170 -644 379 -916 649 -181 180 -225 230 -332 372 -257
343 -413 640 -542 1033 -116 351 -168 686 -169 1075 -1 220 11 364 45 575 208
1263 1098 2310 2319 2727 241 82 531 146 786 172 182 19 542 19 722 1z m-2820
-447 l-3 -23 -713 -2 c-393 -1 -717 -4 -720 -7 -3 -4 4 -70 16 -149 12 -78 53
-349 91 -602 38 -253 86 -566 105 -695 20 -129 41 -262 46 -295 5 -33 21 -136
35 -230 14 -93 34 -227 45 -297 13 -78 18 -143 14 -169 -13 -77 -24 -29 -83
351 -31 198 -159 1004 -266 1680 -36 228 -68 425 -71 437 l-6 23 757 0 756 0
-3 -22z m6437 0 c-5 -21 -144 -899 -165 -1043 -5 -33 -43 -271 -84 -530 -41
-258 -89 -560 -106 -670 -17 -110 -36 -218 -43 -240 l-11 -39 -8 34 c-5 19 -6
55 -3 80 6 46 63 428 90 600 8 52 37 244 65 425 27 182 83 551 125 822 41 270
75 501 75 512 0 21 -4 21 -267 23 -148 1 -470 2 -718 3 l-450 0 -3 23 -3 22
755 0 756 0 -5 -22z m-6425 -78 c0 -20 -7 -20 -674 -20 -400 0 -677 -4 -681
-9 -4 -8 41 -338 90 -651 8 -52 40 -266 70 -475 30 -209 70 -488 90 -620 51
-341 55 -376 46 -415 -14 -60 1 -150 -192 1125 -27 182 -58 386 -69 455 -52
336 -90 591 -90 609 l0 21 705 0 c698 0 705 0 705 -20z m6320 2 c0 -9 -29
-211 -65 -447 -36 -237 -79 -520 -95 -630 -17 -110 -35 -227 -40 -260 -34
-208 -130 -852 -130 -871 0 -8 -4 -14 -9 -14 -20 0 -20 74 -1 206 21 143 135
924 170 1164 11 74 38 259 60 410 59 400 59 403 54 412 -3 4 -309 8 -680 8
-667 0 -674 0 -674 20 0 20 7 20 705 20 668 0 705 -1 705 -18z m-6320 -76 c0
-8 -7 -17 -16 -20 -9 -3 -293 -6 -632 -6 -338 0 -617 -1 -619 -4 -2 -2 12
-116 31 -252 19 -137 71 -508 116 -824 44 -316 88 -625 97 -687 12 -82 13
-121 6 -145 -10 -32 -10 -32 -16 -8 -4 14 -36 230 -72 480 -105 727 -195 1340
-205 1405 -5 33 -10 63 -10 68 0 4 297 7 660 7 557 0 660 -2 660 -14z m6230
11 c0 -1 -20 -139 -45 -307 -24 -168 -51 -352 -59 -410 -142 -975 -177 -1210
-184 -1235 l-9 -30 -7 36 c-5 24 13 184 59 505 36 258 79 564 95 679 16 116
46 324 66 464 19 139 33 255 31 258 -3 2 -282 4 -619 3 -338 0 -622 2 -631 6
-9 3 -17 12 -17 20 0 12 103 14 660 14 363 0 660 -1 660 -3z m-6220 -87 c0
-20 -7 -20 -595 -20 l-595 0 0 -27 c0 -16 16 -145 35 -288 144 -1055 182
-1348 177 -1371 -9 -48 -19 -22 -35 94 -9 64 -33 230 -52 367 -19 138 -67 473
-105 745 -38 272 -70 501 -70 508 0 9 131 12 620 12 613 0 620 0 620 -20z
m6130 4 c0 -9 -7 -60 -15 -113 -8 -53 -37 -260 -65 -461 -28 -201 -57 -408
-65 -460 -8 -52 -33 -231 -56 -397 -23 -167 -45 -303 -49 -303 -15 0 -16 50
-4 146 7 55 29 218 49 364 20 146 45 330 55 410 11 80 37 278 60 440 22 162
40 307 40 322 l0 28 -592 2 c-555 3 -593 4 -596 21 -3 16 31 17 617 17 567 0
621 -1 621 -16z m-6124 -65 c3 -6 0 -15 -7 -20 -8 -5 -258 -9 -558 -8 -299 0
-546 -2 -548 -5 -3 -3 0 -42 6 -88 7 -46 23 -168 36 -273 48 -380 107 -833
124 -960 14 -108 15 -136 5 -160 -7 -17 -13 -27 -14 -23 0 6 -173 1289 -198
1475 -5 35 -6 65 -4 68 3 3 263 5 578 5 410 0 575 -3 580 -11z m6036 6 c2 -3
1 -31 -3 -63 -19 -140 -83 -615 -124 -917 -62 -463 -74 -548 -80 -553 -2 -2
-7 8 -11 24 -4 17 10 163 35 359 23 181 62 483 86 670 24 187 47 364 50 393
l8 52 -556 0 c-360 0 -558 4 -562 10 -3 6 -3 15 0 20 6 10 1147 15 1157 5z
m-6032 -80 c0 -13 -63 -15 -510 -15 -465 0 -511 -1 -517 -16 -3 -10 6 -112 20
-228 15 -116 41 -326 58 -466 16 -140 39 -322 49 -405 16 -126 16 -153 5 -175
l-13 -25 -6 35 c-3 19 -20 143 -36 275 -17 132 -42 326 -55 430 -14 105 -32
244 -41 310 -8 66 -19 150 -25 187 -5 37 -9 76 -9 87 0 21 2 21 540 21 473 0
540 -2 540 -15z m5950 1 c0 -8 -21 -174 -46 -368 -25 -194 -61 -474 -79 -623
-19 -148 -37 -288 -41 -309 l-6 -39 -13 30 c-11 26 -10 55 5 179 11 82 33 262
49 399 17 138 42 348 57 467 15 119 24 224 21 232 -6 14 -65 16 -517 16 -447
0 -510 2 -510 15 0 13 67 15 540 15 465 0 540 -2 540 -14z m-5990 -61 c0 -2
-10 -13 -22 -25 -21 -19 -33 -20 -445 -20 -388 0 -424 -1 -430 -17 -4 -9 19
-244 51 -522 50 -432 56 -510 45 -536 l-12 -30 -8 45 c-4 25 -15 110 -24 190
-9 80 -34 287 -56 460 -21 173 -42 348 -45 388 l-7 72 477 0 c262 0 476 -2
476 -5z m5900 -30 c0 -19 -5 -67 -10 -107 -6 -40 -26 -201 -45 -358 -83 -687
-78 -653 -92 -634 -18 24 -18 17 31 446 67 583 70 604 63 622 -6 14 -48 16
-433 16 -384 0 -429 2 -446 17 -10 9 -18 20 -18 25 0 4 214 8 475 8 l475 0 0
-35z m-6020 -84 c0 -4 -8 -16 -17 -27 -264 -293 -423 -514 -556 -769 -22 -41
-38 -63 -41 -54 -3 7 -12 75 -20 149 -8 74 -29 258 -46 408 -17 151 -29 280
-26 288 5 12 62 14 356 14 192 -1 350 -4 350 -9z m5896 -63 c-4 -40 -22 -203
-41 -363 -19 -159 -37 -320 -41 -357 -3 -38 -10 -68 -13 -68 -4 0 -28 38 -54
85 -122 223 -274 438 -456 645 -55 63 -101 118 -101 123 0 4 160 7 356 7 l357
0 -7 -72z"  stroke="#000" />

<path d="M9295 8294 c-291 -30 -456 -58 -650 -110 -1205 -324 -2121 -1252
-2419 -2449 -74 -301 -91 -449 -90 -820 0 -285 2 -324 26 -481 158 -1017 727
-1871 1598 -2399 572 -347 1244 -514 1940 -484 1049 46 2007 565 2620 1419
306 427 504 919 587 1460 31 205 42 574 23 782 -95 1047 -650 1971 -1525 2539
-143 93 -398 228 -526 279 -332 132 -602 204 -919 246 -119 15 -572 27 -665
18z m555 -45 c494 -41 1013 -211 1445 -472 829 -500 1406 -1347 1564 -2292 35
-208 45 -343 44 -580 -2 -522 -110 -985 -338 -1450 -321 -656 -843 -1183
-1493 -1507 -220 -110 -294 -141 -492 -204 -359 -114 -653 -158 -1045 -159
-324 0 -542 26 -840 101 -322 81 -620 205 -913 378 -724 430 -1273 1151 -1496
1963 -86 313 -119 561 -119 893 0 239 9 354 44 560 208 1234 1081 2236 2284
2623 295 95 584 145 895 156 209 7 282 5 460 -10z" stroke="#000"/>
<path d="M9355 8194 c-544 -34 -1057 -188 -1511 -455 -743 -435 -1290 -1156
-1504 -1983 -146 -561 -145 -1120 2 -1676 319 -1207 1313 -2130 2548 -2369
247 -48 333 -55 645 -55 313 -1 396 7 645 55 573 112 1111 374 1540 751 339
298 589 624 784 1023 167 341 270 693 318 1090 18 152 15 582 -6 740 -107 817
-483 1529 -1086 2059 -501 441 -1101 709 -1775 796 -144 18 -476 32 -600 24z
m462 -45 c1439 -121 2624 -1163 2917 -2564 52 -252 60 -339 60 -660 0 -320 -7
-405 -60 -663 -132 -646 -469 -1246 -955 -1697 -533 -496 -1182 -788 -1919
-864 -267 -28 -530 -21 -815 20 -659 96 -1298 405 -1770 858 -539 517 -859
1137 -977 1891 -19 127 -22 184 -22 450 0 326 7 411 60 665 61 291 138 511
276 786 83 167 202 358 319 516 146 194 396 442 609 604 493 374 1086 603
1708 658 133 12 426 12 569 0z" stroke="#000"/>
<path d="M9300 8039 c-999 -80 -1873 -593 -2411 -1414 -267 -407 -426 -854
-491 -1375 -16 -133 -16 -533 1 -660 70 -540 229 -978 502 -1388 694 -1042
1927 -1568 3179 -1356 377 63 774 209 1083 398 37 22 82 50 100 61 222 135
547 429 736 663 306 381 530 857 625 1332 46 229 59 367 59 625 0 258 -13 400
-59 620 -191 925 -765 1690 -1604 2138 -505 269 -1145 402 -1720 356z m685
-87 c611 -95 1152 -343 1595 -731 142 -124 144 -92 -14 -250 -75 -75 -136
-140 -136 -144 0 -4 37 -46 81 -95 107 -114 169 -192 264 -331 l77 -115 -23
-19 c-13 -10 -44 -30 -70 -42 -79 -40 -79 -34 10 -217 176 -360 254 -691 253
-1083 0 -402 -82 -747 -263 -1109 -38 -77 -69 -143 -69 -147 0 -5 36 -29 80
-55 44 -25 80 -48 80 -51 0 -3 -28 -49 -63 -102 -72 -110 -195 -264 -291 -366
-36 -38 -66 -74 -66 -79 0 -6 62 -70 137 -144 l137 -134 -50 -46 c-128 -122
-286 -243 -448 -346 -761 -485 -1707 -613 -2581 -349 -437 132 -861 373 -1195
680 l-64 60 137 134 c75 74 137 139 137 143 0 5 -29 39 -64 76 -35 38 -97 110
-139 161 -77 97 -212 289 -206 292 146 79 198 110 203 122 2 6 -26 72 -63 146
-132 263 -220 559 -250 841 -16 140 -14 445 4 575 40 303 133 598 270 856 25
48 43 92 40 97 -7 12 -172 110 -185 110 -24 0 -15 24 40 105 86 125 182 246
272 341 43 46 78 87 78 91 0 4 -61 69 -136 144 l-137 137 59 55 c308 287 690
514 1099 654 204 70 469 127 695 152 150 17 616 6 765 -17z m-2533 -999 c65
-64 118 -120 118 -123 0 -3 -25 -32 -55 -65 -333 -364 -566 -815 -665 -1287
-42 -204 -53 -316 -54 -553 0 -245 11 -357 60 -585 27 -128 98 -351 151 -474
118 -277 305 -565 512 -788 l54 -59 -122 -122 -122 -122 -69 73 c-450 476
-735 1116 -801 1797 -19 195 -6 566 25 754 102 604 339 1103 736 1554 57 64
106 117 108 117 3 0 59 -53 124 -117z m4390 10 c294 -336 497 -686 629 -1087
152 -460 190 -982 108 -1470 -79 -473 -284 -946 -571 -1324 -62 -81 -205 -247
-242 -282 l-27 -24 -119 119 c-66 66 -120 122 -120 125 1 3 26 32 56 65 259
279 465 627 585 989 185 557 182 1171 -10 1726 -122 353 -283 627 -549 933
l-85 98 119 120 c65 65 122 119 125 119 3 0 49 -48 101 -107z m-4549 -752 c42
-25 77 -48 77 -51 0 -4 -29 -67 -64 -141 -339 -712 -334 -1520 13 -2218 28
-56 51 -107 51 -111 0 -5 -33 -28 -72 -51 -40 -23 -76 -46 -79 -52 -22 -32
-204 367 -268 588 -162 562 -141 1132 61 1675 49 133 185 413 197 408 4 -2 41
-23 84 -47z m4663 -127 c237 -472 322 -1037 238 -1579 -25 -159 -85 -382 -148
-550 -41 -106 -158 -335 -172 -335 -7 0 -37 14 -67 31 l-54 32 73 151 c40 83
89 198 109 255 223 648 180 1341 -120 1948 l-62 123 56 35 c31 19 61 33 66 32
6 -1 42 -66 81 -143z" stroke="#000"/>
</g>
</svg>
